<svg id="Capa_1" enable-background="new 0 0 482.056 482.056" height="512" viewBox="0 0 482.056 482.056" width="512" xmlns="http://www.w3.org/2000/svg"><g><path d="m321.612 428.562h-161.116l23.058-71.138h114.999z" fill="#62667c"/><path d="m332.923 422.445h-183.715c-7.629 0-13.813 6.184-13.813 13.813v7.282h211.341v-7.282c0-7.629-6.184-13.813-13.813-13.813z" fill="#575b6d"/><path d="m482.056 57.827v307.052c.038 10.142-8.153 18.395-18.295 18.433-.013 0-.027 0-.04 0h-445.288c-10.168.013-18.42-8.219-18.433-18.387 0-.015 0-.031 0-.046v-307.052c-.013-10.652 8.613-19.298 19.265-19.311h.046 443.428c10.652-.016 19.301 8.607 19.317 19.259z" fill="#575b6d"/><path d="m19.954 59.56h442.2v257.016h-442.2z" fill="#69b0ee"/><ellipse cx="241.057" cy="349.941" fill="#828a9e" rx="12.241" ry="12.241" transform="matrix(.924 -.383 .383 .924 -115.567 118.886)"/><g fill="#eeefee"><path d="m114.075 316.57h-16.384l143.469-257.01h16.384z" opacity=".5"/><path d="m217.941 316.57h-52.102l143.469-257.01h52.102z" opacity=".5"/></g></g></svg>