<svg width="32" height="32" fill="none" xmlns="http://www.w3.org/2000/svg"><path d="M2.367 24.82C6.195 16.517 9.966 8.295 13.809 0h6.427c-3.306 7.144-6.362 13.975-9.655 21.124-2.844.687-5.817 1.992-8.214 3.695zm26.653 6.83c-3.533-7.671-7.06-15.343-10.594-23.012 1.08-2.32 2.107-4.665 3.227-6.965 4.213 9.173 8.43 18.344 12.665 27.505-1.743.868-3.534 1.643-5.297 2.471zM0 29.42c6.269-6.295 13.787-8.503 22.554-6.623 1.065 2.395 2.265 4.751 3.329 7.148a18.232 18.232 0 00-7.259-2.01c-3.77-.29-7.711.346-10.98 2.322-.751.495-1.6 1.013-2.145 1.743C2.67 30.652.835 29.792 0 29.42z" fill="#008DFF"/><path fill-rule="evenodd" clip-rule="evenodd" d="M18.414 12.954l2.579 5.62a1.325 1.325 0 01-1.403 1.862 20.376 20.376 0 00-2.744-.253c-.793-.013-1.558.02-2.294.1a.975.975 0 01-.99-1.375l2.7-5.95a1.183 1.183 0 012.152-.005z" fill="#008DFF" fill-opacity=".5"/></svg>